<svg width="12" height="12" viewBox="0 0 12 12" fill="none" xmlns="http://www.w3.org/2000/svg">
<path d="M11.25 9C11.25 9.19891 11.171 9.38968 11.0303 9.53033C10.8897 9.67098 10.6989 9.75 10.5 9.75H1.5C1.30109 9.75 1.11032 9.67098 0.96967 9.53033C0.829018 9.38968 0.75 9.19891 0.75 9V4.5C0.75 4.30109 0.829018 4.11032 0.96967 3.96967C1.11032 3.82902 1.30109 3.75 1.5 3.75H2.379C2.97543 3.74967 3.54733 3.51255 3.969 3.09075L4.5915 2.46975C4.73175 2.32945 4.92187 2.25044 5.12025 2.25H6.87825C7.07715 2.25004 7.26788 2.32909 7.4085 2.46975L8.0295 3.09075C8.23847 3.29979 8.48658 3.4656 8.75966 3.57872C9.03274 3.69183 9.32542 3.75004 9.621 3.75H10.5C10.6989 3.75 10.8897 3.82902 11.0303 3.96967C11.171 4.11032 11.25 4.30109 11.25 4.5V9ZM1.5 3C1.10218 3 0.720644 3.15804 0.43934 3.43934C0.158035 3.72064 0 4.10218 0 4.5L0 9C0 9.39782 0.158035 9.77936 0.43934 10.0607C0.720644 10.342 1.10218 10.5 1.5 10.5H10.5C10.8978 10.5 11.2794 10.342 11.5607 10.0607C11.842 9.77936 12 9.39782 12 9V4.5C12 4.10218 11.842 3.72064 11.5607 3.43934C11.2794 3.15804 10.8978 3 10.5 3H9.621C9.22321 2.99992 8.84174 2.84182 8.5605 2.5605L7.9395 1.9395C7.65826 1.65818 7.27679 1.50008 6.879 1.5H5.121C4.72321 1.50008 4.34174 1.65818 4.0605 1.9395L3.4395 2.5605C3.15826 2.84182 2.77679 2.99992 2.379 3H1.5Z" fill="black"/>
<path d="M6 8.25C5.50272 8.25 5.02581 8.05246 4.67417 7.70083C4.32254 7.34919 4.125 6.87228 4.125 6.375C4.125 5.87772 4.32254 5.40081 4.67417 5.04917C5.02581 4.69754 5.50272 4.5 6 4.5C6.49728 4.5 6.97419 4.69754 7.32583 5.04917C7.67746 5.40081 7.875 5.87772 7.875 6.375C7.875 6.87228 7.67746 7.34919 7.32583 7.70083C6.97419 8.05246 6.49728 8.25 6 8.25ZM6 9C6.69619 9 7.36387 8.72344 7.85616 8.23116C8.34844 7.73887 8.625 7.07119 8.625 6.375C8.625 5.67881 8.34844 5.01113 7.85616 4.51884C7.36387 4.02656 6.69619 3.75 6 3.75C5.30381 3.75 4.63613 4.02656 4.14384 4.51884C3.65156 5.01113 3.375 5.67881 3.375 6.375C3.375 7.07119 3.65156 7.73887 4.14384 8.23116C4.63613 8.72344 5.30381 9 6 9V9ZM2.25 4.875C2.25 4.97446 2.21049 5.06984 2.14016 5.14016C2.06984 5.21049 1.97446 5.25 1.875 5.25C1.77554 5.25 1.68016 5.21049 1.60984 5.14016C1.53951 5.06984 1.5 4.97446 1.5 4.875C1.5 4.77554 1.53951 4.68016 1.60984 4.60984C1.68016 4.53951 1.77554 4.5 1.875 4.5C1.97446 4.5 2.06984 4.53951 2.14016 4.60984C2.21049 4.68016 2.25 4.77554 2.25 4.875V4.875Z" fill="black"/>
</svg>
