<svg width="12" height="12" viewBox="0 0 12 12" fill="none" xmlns="http://www.w3.org/2000/svg">
<path d="M0 6C0 4.4087 0.632141 2.88258 1.75736 1.75736C2.88258 0.632141 4.4087 0 6 0C7.5913 0 9.11742 0.632141 10.2426 1.75736C11.3679 2.88258 12 4.4087 12 6C12 7.5913 11.3679 9.11742 10.2426 10.2426C9.11742 11.3679 7.5913 12 6 12C4.4087 12 2.88258 11.3679 1.75736 10.2426C0.632141 9.11742 0 7.5913 0 6V6ZM5.625 0.80775C5.1225 0.96075 4.62375 1.42275 4.20975 2.199C4.1025 2.4 4.00275 2.619 3.9135 2.853C4.44225 2.97075 5.0175 3.04575 5.625 3.06825V0.80775ZM3.18675 2.65425C3.29325 2.36625 3.41475 2.09625 3.5475 1.84575C3.67718 1.60054 3.82694 1.36649 3.99525 1.146C3.35675 1.4106 2.77669 1.7985 2.28825 2.2875C2.55975 2.4255 2.8605 2.54925 3.18675 2.655V2.65425ZM2.63175 5.625C2.65875 4.8225 2.77275 4.05975 2.95875 3.369C2.55277 3.23917 2.15982 3.07169 1.785 2.86875C1.18766 3.67076 0.833116 4.6274 0.7635 5.625H2.631H2.63175ZM3.68175 3.56925C3.50494 4.24107 3.4043 4.93066 3.38175 5.625H5.625V3.81825C4.9425 3.79575 4.28775 3.7095 3.68175 3.56925ZM6.375 3.8175V5.625H8.6175C8.5952 4.93069 8.49482 4.2411 8.31825 3.56925C7.71225 3.7095 7.0575 3.795 6.375 3.81825V3.8175ZM3.3825 6.375C3.40875 7.11525 3.5145 7.8105 3.68175 8.43075C4.32004 8.2859 4.97079 8.20277 5.625 8.1825V6.375H3.3825ZM6.375 6.375V8.18175C7.0575 8.20425 7.71225 8.2905 8.31825 8.43075C8.4855 7.8105 8.59125 7.11525 8.61825 6.375H6.375ZM3.9135 9.147C4.0035 9.381 4.1025 9.6 4.20975 9.801C4.62375 10.5772 5.12325 11.0385 5.625 11.1923V8.9325C5.0175 8.955 4.44225 9.03 3.9135 9.14775V9.147ZM3.996 10.854C3.82742 10.6335 3.67741 10.3995 3.5475 10.1542C3.40937 9.89283 3.28885 9.62248 3.18675 9.345C2.87822 9.44415 2.57783 9.56702 2.28825 9.7125C2.77669 10.2015 3.35675 10.5894 3.99525 10.854H3.996ZM2.95875 8.631C2.76403 7.89392 2.65407 7.13702 2.631 6.375H0.7635C0.833074 7.3726 1.18762 8.32926 1.785 9.13125C2.1375 8.93775 2.53125 8.76975 2.95875 8.631V8.631ZM8.00475 10.854C8.64293 10.5896 9.22273 10.2019 9.711 9.71325C9.42167 9.56779 9.12153 9.44493 8.81325 9.34575C8.71112 9.62298 8.5906 9.89308 8.4525 10.1542C8.32286 10.3995 8.17309 10.6335 8.00475 10.854V10.854ZM6.375 8.93175V11.1923C6.8775 11.0393 7.37625 10.5772 7.79025 9.801C7.8975 9.6 7.99725 9.381 8.0865 9.147C7.52371 9.0236 6.95084 8.9518 6.375 8.9325V8.93175ZM9.04125 8.631C9.46875 8.76975 9.8625 8.93775 10.215 9.13125C10.8124 8.32926 11.1669 7.3726 11.2365 6.375H9.369C9.34593 7.13702 9.23597 7.89392 9.04125 8.631V8.631ZM11.2365 5.625C11.1669 4.6274 10.8124 3.67074 10.215 2.86875C9.8625 3.06225 9.46875 3.23025 9.04125 3.369C9.22725 4.059 9.34125 4.8225 9.369 5.625H11.2365ZM8.4525 1.84575C8.58525 2.09625 8.70675 2.36625 8.814 2.65425C9.12203 2.55506 9.42192 2.43219 9.711 2.28675C9.22265 1.79837 8.64286 1.41099 8.00475 1.14675C8.16825 1.359 8.31825 1.5945 8.4525 1.84575V1.84575ZM8.0865 2.853C8.00129 2.62911 7.90236 2.4107 7.79025 2.199C7.37625 1.42275 6.8775 0.9615 6.375 0.80775V3.0675C6.9825 3.045 7.55775 2.97 8.0865 2.85225V2.853Z" fill="#38A169"/>
</svg>
