<svg width="18" height="18" viewBox="0 0 18 18" fill="none" xmlns="http://www.w3.org/2000/svg">
<path d="M9 16C7.14348 16 5.36301 15.2625 4.05025 13.9497C2.7375 12.637 2 10.8565 2 9C2 7.14348 2.7375 5.36301 4.05025 4.05025C5.36301 2.7375 7.14348 2 9 2C10.8565 2 12.637 2.7375 13.9497 4.05025C15.2625 5.36301 16 7.14348 16 9C16 10.8565 15.2625 12.637 13.9497 13.9497C12.637 15.2625 10.8565 16 9 16ZM9 17C11.1217 17 13.1566 16.1571 14.6569 14.6569C16.1571 13.1566 17 11.1217 17 9C17 6.87827 16.1571 4.84344 14.6569 3.34315C13.1566 1.84285 11.1217 1 9 1C6.87827 1 4.84344 1.84285 3.34315 3.34315C1.84285 4.84344 1 6.87827 1 9C1 11.1217 1.84285 13.1566 3.34315 14.6569C4.84344 16.1571 6.87827 17 9 17Z" fill="#2B6CB0" stroke="#2B6CB0"/>
<path d="M5.05042 6.1119C4.98276 6.36643 4.98321 6.63428 5.0517 6.88858C5.12019 7.14289 5.25432 7.37473 5.44065 7.56086C5.62698 7.74699 5.85897 7.88087 6.11335 7.94908C6.36773 8.0173 6.63558 8.01745 6.89003 7.94952L10.0616 11.0766C9.99569 11.3005 9.98287 11.5367 10.0242 11.7664C10.0655 11.9962 10.1597 12.2131 10.2995 12.4001C10.4393 12.587 10.6207 12.7388 10.8293 12.8434C11.038 12.948 11.2682 13.0026 11.5016 13.0027C11.7166 13.0024 11.9291 12.9559 12.1246 12.8663C12.3201 12.7767 12.494 12.6462 12.6347 12.4835C12.7753 12.3208 12.8793 12.1298 12.9397 11.9234C13 11.717 13.0153 11.5 12.9845 11.2872C12.9537 11.0744 12.8775 10.8707 12.7611 10.6899C12.6447 10.5091 12.4908 10.3554 12.3098 10.2393C12.1288 10.1232 11.9249 10.0473 11.712 10.0168C11.4992 9.98638 11.2822 10.002 11.0759 10.0627L7.94889 6.89116C8.01715 6.63661 8.01725 6.36857 7.94918 6.11396C7.88112 5.85936 7.74728 5.62713 7.5611 5.4406C7.37492 5.25406 7.14295 5.11978 6.88847 5.05123C6.63399 4.98268 6.36596 4.98227 6.11127 5.05004L7.18213 6.1214L7.00007 7.0007L6.12128 7.18276L5.05042 6.1119ZM11.7377 10.6229L12.0018 10.6359L12.1453 10.8585L12.3679 11.002L12.3809 11.2666L12.5019 11.5022L12.3809 11.7378L12.3679 12.0024L12.1453 12.1459L12.0018 12.3685L11.7372 12.3815L11.5016 12.5026L11.266 12.3815L11.0014 12.3685L10.8579 12.1459L10.6353 12.0024L10.6223 11.7378L10.5013 11.5022L10.6223 11.2666L10.6353 11.002L10.8579 10.8585L11.0014 10.6359L11.266 10.6229L11.5016 10.5019L11.7372 10.6229H11.7377Z" fill="#2B6CB0"/>
</svg>
